<svg xmlns="http://www.w3.org/2000/svg" width="1200" height="450" viewBox="0 0 1200 450" font-family="ui-sans-serif,-apple-system,'Segoe UI','Helvetica Neue','PingFang SC','Microsoft YaHei','Noto Sans','DejaVu Sans','Liberation Sans',Roboto,Arial,sans-serif">
  <defs>
    <linearGradient id="g-title" x1="0" y1="0" x2="1" y2="0">
      <stop offset="0" stop-color="#6366f1"/><stop offset="1" stop-color="#14b8a6"/>
    </linearGradient>
    <linearGradient id="g-arrow1" gradientUnits="userSpaceOnUse" x1="470" y1="278" x2="509" y2="278">
      <stop offset="0" stop-color="#6366f1"/><stop offset="1" stop-color="#7c3aed"/>
    </linearGradient>
    <linearGradient id="g-arrow2" gradientUnits="userSpaceOnUse" x1="775" y1="278" x2="809" y2="278">
      <stop offset="0" stop-color="#7c3aed"/><stop offset="1" stop-color="#0d9488"/>
    </linearGradient>
    <radialGradient id="g-glow-indigo">
      <stop offset="0" stop-color="#6366f1" stop-opacity="0.13"/><stop offset="1" stop-color="#6366f1" stop-opacity="0"/>
    </radialGradient>
    <radialGradient id="g-glow-teal">
      <stop offset="0" stop-color="#14b8a6" stop-opacity="0.12"/><stop offset="1" stop-color="#14b8a6" stop-opacity="0"/>
    </radialGradient>
    <pattern id="p-dots" width="22" height="22" patternUnits="userSpaceOnUse">
      <circle cx="1.5" cy="1.5" r="1.1" fill="#0f172a" fill-opacity="0.045"/>
    </pattern>
    <filter id="shadow-lg" x="-20%" y="-20%" width="140%" height="140%">
      <feDropShadow dx="0" dy="3" stdDeviation="6" flood-color="#0f172a" flood-opacity="0.10"/>
    </filter>
    <filter id="shadow-sm" x="-30%" y="-30%" width="160%" height="160%">
      <feDropShadow dx="0" dy="2" stdDeviation="3" flood-color="#0f172a" flood-opacity="0.08"/>
    </filter>
  </defs>
  <rect width="1200" height="450" fill="#ffffff"/>
  <circle cx="150" cy="40" r="360" fill="url(#g-glow-indigo)"/>
  <circle cx="1070" cy="420" r="360" fill="url(#g-glow-teal)"/>
  <rect width="1200" height="450" fill="url(#p-dots)"/>
  <!-- Title -->
  <text x="600" y="53" text-anchor="middle" font-size="40" font-weight="800" fill="#0f172a">FreeGLM</text>
  <rect x="558" y="66" width="84" height="4" rx="2" fill="url(#g-title)"/>
  <text x="600" y="97" text-anchor="middle" font-size="16.5" fill="#64748b">Make any agent harness multimodal-native</text>
  <!-- Zone eyebrows -->
  <text x="250" y="132" text-anchor="middle" font-size="13" font-weight="700" letter-spacing="2" fill="#4f46e5">CAPABILITIES</text>
  <rect x="236" y="139" width="28" height="3" rx="1.5" fill="#6366f1"/>
  <text x="640" y="132" text-anchor="middle" font-size="13" font-weight="700" letter-spacing="2" fill="#7c3aed">ONE PLUGIN EACH</text>
  <rect x="626" y="139" width="28" height="3" rx="1.5" fill="#8b5cf6"/>
  <text x="977" y="132" text-anchor="middle" font-size="13" font-weight="700" letter-spacing="2" fill="#0d9488">ANY HARNESS</text>
  <rect x="963" y="139" width="28" height="3" rx="1.5" fill="#14b8a6"/>
  <!-- (1) Capabilities zone -->
  <rect x="40" y="152" width="420" height="252" rx="18" fill="#ffffff" stroke="#c7d2fe" stroke-width="1.6" filter="url(#shadow-lg)"/>
  <!-- core -->
  <rect x="52" y="164" width="192" height="68" rx="14" fill="#ffffff" stroke="#e6e9ef" stroke-width="1.5" filter="url(#shadow-sm)"/>
  <rect x="66" y="179" width="4" height="38" rx="2" fill="#6366f1"/>
  <text x="80" y="195" font-size="15" font-weight="700" fill="#1e293b">core</text>
  <text x="80" y="215" font-size="10.5" fill="#64748b">see images · video · docs · 3D</text>
  <!-- video-memory -->
  <rect x="256" y="164" width="192" height="68" rx="14" fill="#ffffff" stroke="#e6e9ef" stroke-width="1.5" filter="url(#shadow-sm)"/>
  <rect x="270" y="179" width="4" height="38" rx="2" fill="#8b5cf6"/>
  <text x="284" y="195" font-size="15" font-weight="700" fill="#1e293b">video-memory</text>
  <text x="284" y="215" font-size="10.5" fill="#64748b">ask a 100-hour video anything</text>
  <!-- video-edit -->
  <rect x="52" y="244" width="192" height="68" rx="14" fill="#ffffff" stroke="#e6e9ef" stroke-width="1.5" filter="url(#shadow-sm)"/>
  <rect x="66" y="259" width="4" height="38" rx="2" fill="#ec4899"/>
  <text x="80" y="275" font-size="15" font-weight="700" fill="#1e293b">video-edit</text>
  <text x="80" y="295" font-size="10.5" fill="#64748b">edit videos · generate media</text>
  <!-- blender -->
  <rect x="256" y="244" width="192" height="68" rx="14" fill="#ffffff" stroke="#e6e9ef" stroke-width="1.5" filter="url(#shadow-sm)"/>
  <rect x="270" y="259" width="4" height="38" rx="2" fill="#f59e0b"/>
  <text x="284" y="275" font-size="15" font-weight="700" fill="#1e293b">blender</text>
  <text x="284" y="295" font-size="10.5" fill="#64748b">build &amp; render 3D scenes</text>
  <!-- freecad -->
  <rect x="52" y="324" width="192" height="68" rx="14" fill="#ffffff" stroke="#e6e9ef" stroke-width="1.5" filter="url(#shadow-sm)"/>
  <rect x="66" y="339" width="4" height="38" rx="2" fill="#ef4444"/>
  <text x="80" y="355" font-size="15" font-weight="700" fill="#1e293b">freecad</text>
  <text x="80" y="375" font-size="10.5" fill="#64748b">design real parts · run FEM</text>
  <!-- edu-agent -->
  <rect x="256" y="324" width="192" height="68" rx="14" fill="#ffffff" stroke="#e6e9ef" stroke-width="1.5" filter="url(#shadow-sm)"/>
  <rect x="270" y="339" width="4" height="38" rx="2" fill="#14b8a6"/>
  <text x="284" y="355" font-size="15" font-weight="700" fill="#1e293b">edu-agent</text>
  <text x="284" y="375" font-size="10.5" fill="#64748b">problem in, video lesson out</text>
  <!-- arrow (1)->(2) -->
  <text x="485" y="264" text-anchor="middle" font-size="10" font-weight="600" letter-spacing="0.5" fill="#7c3aed">ship as</text>
  <line x1="470" y1="278" x2="500" y2="278" stroke="url(#g-arrow1)" stroke-width="2.5" stroke-linecap="round"/>
  <path d="M500 272.5 L509 278 L500 283.5 Z" fill="#7c3aed"/>
  <!-- (2) Plugin -->
  <rect x="510" y="152" width="260" height="252" rx="18" fill="#ffffff" stroke="#c4b5fd" stroke-width="1.6" filter="url(#shadow-lg)"/>
  <rect x="534" y="169" width="212" height="28" rx="14" fill="#f5f3ff" stroke="#ede9fe" stroke-width="1"/>
  <text x="640" y="189" text-anchor="middle" font-size="17" font-weight="700" font-family="ui-monospace,'SFMono-Regular','Menlo','Consolas','Liberation Mono',monospace" fill="#6d28d9">freeglm-*</text>
  <text x="640" y="212" text-anchor="middle" font-size="11.5" fill="#8b5cf6">install only what you need</text>
  <!-- plugin card deck: one card per capability -->
  <rect x="556" y="234" width="168" height="100" rx="10" fill="#f5f3ff" stroke="#ddd6fe" stroke-width="1.2"/>
  <rect x="544" y="243" width="192" height="106" rx="11" fill="#faf5ff" stroke="#ddd6fe" stroke-width="1.2"/>
  <rect x="532" y="252" width="216" height="116" rx="12" fill="#ffffff" stroke="#c4b5fd" stroke-width="1.4" filter="url(#shadow-sm)"/>
  <!-- anatomy chips: Skill + MCP server -->
  <rect x="544" y="268" width="62" height="30" rx="15" fill="#faf5ff" stroke="#ddd6fe" stroke-width="1.4"/>
  <text x="575" y="287" text-anchor="middle" font-size="13" font-weight="700" fill="#5b21b6">Skill</text>
  <text x="616" y="288" text-anchor="middle" font-size="15" font-weight="700" fill="#c4b5fd">+</text>
  <rect x="626" y="268" width="110" height="30" rx="15" fill="#faf5ff" stroke="#ddd6fe" stroke-width="1.4"/>
  <text x="681" y="287" text-anchor="middle" font-size="13" font-weight="700" fill="#5b21b6">MCP server</text>
  <text x="575" y="316" text-anchor="middle" font-size="9.5" fill="#94a3b8">the brains</text>
  <text x="681" y="316" text-anchor="middle" font-size="9.5" fill="#94a3b8">the hands</text>
  <line x1="552" y1="330" x2="728" y2="330" stroke="#f1f5f9" stroke-width="1.2"/>
  <text x="640" y="351" text-anchor="middle" font-size="10.5" fill="#94a3b8">launched on demand by uvx</text>
  <text x="640" y="390" text-anchor="middle" font-size="10" fill="#c4b5fd">one card per capability</text>
  <!-- arrow (2)->(3) -->
  <text x="790" y="264" text-anchor="middle" font-size="10" font-weight="600" letter-spacing="0.5" fill="#0d9488">install</text>
  <line x1="775" y1="278" x2="800" y2="278" stroke="url(#g-arrow2)" stroke-width="2.5" stroke-linecap="round"/>
  <path d="M800 272.5 L809 278 L800 283.5 Z" fill="#0d9488"/>
  <!-- (3) Harness -->
  <rect x="810" y="152" width="334" height="252" rx="18" fill="#ffffff" stroke="#99f6e4" stroke-width="1.6" filter="url(#shadow-lg)"/>
  <g transform="translate(842,188) scale(1.0)"><path d="M4.709 15.955l4.72-2.647.08-.23-.08-.128H9.2l-.79-.048-2.698-.073-2.339-.097-2.266-.122-.571-.121L0 11.784l.055-.352.48-.321.686.06 1.52.103 2.278.158 1.652.097 2.449.255h.389l.055-.157-.134-.098-.103-.097-2.358-1.596-2.552-1.688-1.336-.972-.724-.491-.364-.462-.158-1.008.656-.722.881.06.225.061.893.686 1.908 1.476 2.491 1.833.365.304.145-.103.019-.073-.164-.274-1.355-2.446-1.446-2.49-.644-1.032-.17-.619a2.97 2.97 0 01-.104-.729L6.283.134 6.696 0l.996.134.42.364.62 1.414 1.002 2.229 1.555 3.03.456.898.243.832.091.255h.158V9.01l.128-1.706.237-2.095.23-2.695.08-.76.376-.91.747-.492.584.28.48.685-.067.444-.286 1.851-.559 2.903-.364 1.942h.212l.243-.242.985-1.306 1.652-2.064.73-.82.85-.904.547-.431h1.033l.76 1.129-.34 1.166-1.064 1.347-.881 1.142-1.264 1.7-.79 1.36.073.11.188-.02 2.856-.606 1.543-.28 1.841-.315.833.388.091.395-.328.807-1.969.486-2.309.462-3.439.813-.042.03.049.061 1.549.146.662.036h1.622l3.02.225.79.522.474.638-.079.485-1.215.62-1.64-.389-3.829-.91-1.312-.329h-.182v.11l1.093 1.068 2.006 1.81 2.509 2.33.127.578-.322.455-.34-.049-2.205-1.657-.851-.747-1.926-1.62h-.128v.17l.444.649 2.345 3.521.122 1.08-.17.353-.608.213-.668-.122-1.374-1.925-1.415-2.167-1.143-1.943-.14.08-.674 7.254-.316.37-.729.28-.607-.461-.322-.747.322-1.476.389-1.924.315-1.53.286-1.9.17-.632-.012-.042-.14.018-1.434 1.967-2.18 2.945-1.726 1.845-.414.164-.717-.37.067-.662.401-.589 2.388-3.036 1.44-1.882.93-1.086-.006-.158h-.055L4.132 18.56l-1.13.146-.487-.456.061-.746.231-.243 1.908-1.312-.006.006z"></path></g>
  <text x="880" y="205" font-size="15" font-weight="700" fill="#1e293b">Claude Code</text>
  <g transform="translate(998,188) scale(1.0)"><path clip-rule="evenodd" d="M8.086.457a6.105 6.105 0 013.046-.415c1.333.153 2.521.72 3.564 1.7a.117.117 0 00.107.029c1.408-.346 2.762-.224 4.061.366l.063.03.154.076c1.357.703 2.33 1.77 2.918 3.198.278.679.418 1.388.421 2.126a5.655 5.655 0 01-.18 1.631.167.167 0 00.04.155 5.982 5.982 0 011.578 2.891c.385 1.901-.01 3.615-1.183 5.14l-.182.22a6.063 6.063 0 01-2.934 1.851.162.162 0 00-.108.102c-.255.736-.511 1.364-.987 1.992-1.199 1.582-2.962 2.462-4.948 2.451-1.583-.008-2.986-.587-4.21-1.736a.145.145 0 00-.14-.032c-.518.167-1.04.191-1.604.185a5.924 5.924 0 01-2.595-.622 6.058 6.058 0 01-2.146-1.781c-.203-.269-.404-.522-.551-.821a7.74 7.74 0 01-.495-1.283 6.11 6.11 0 01-.017-3.064.166.166 0 00.008-.074.115.115 0 00-.037-.064 5.958 5.958 0 01-1.38-2.202 5.196 5.196 0 01-.333-1.589 6.915 6.915 0 01.188-2.132c.45-1.484 1.309-2.648 2.577-3.493.282-.188.55-.334.802-.438.286-.12.573-.22.861-.304a.129.129 0 00.087-.087A6.016 6.016 0 015.635 2.31C6.315 1.464 7.132.846 8.086.457zm-.804 7.85a.848.848 0 00-1.473.842l1.694 2.965-1.688 2.848a.849.849 0 001.46.864l1.94-3.272a.849.849 0 00.007-.854l-1.94-3.393zm5.446 6.24a.849.849 0 000 1.695h4.848a.849.849 0 000-1.696h-4.848z"></path></g>
  <text x="1036" y="205" font-size="15" font-weight="700" fill="#1e293b">Codex</text>
  <g transform="translate(842,240) scale(1.0)"><path d="M23.376 14.458v-4.056c0-2.304-1.003-4.154-2.748-5.075L11.612.574l-.046.086-.045.086c1.68.886 2.644 2.673 2.644 4.902v4.056a7.928 7.928 0 01-.014.454l-.005.061c-.005.081-.01.164-.018.245a4.897 4.897 0 01-.011.1l-.01.076c-.008.068-.015.135-.025.203l-.018.113-.01.058a9.99 9.99 0 01-.098.513l-.007.03a7.209 7.209 0 01-.074.294l-.024.086c-.027.099-.056.197-.087.296l-.027.085a9.592 9.592 0 01-.111.323l-.033.085-.018.046c-.032.082-.064.166-.098.248-.019.048-.04.096-.061.145l-.007.017a6 6 0 01-.084.187c-.024.056-.05.11-.077.165-.03.061-.058.122-.089.182a9.423 9.423 0 01-.176.332c-.03.056-.062.111-.094.167-.031.053-.062.108-.095.16-.033.055-.066.11-.101.164-.033.053-.065.104-.1.155-.034.055-.07.107-.111.169l-.099.144a15.193 15.193 0 01-.34.457c-.04.05-.08.102-.121.151l-.107.128-.007.008a6.987 6.987 0 01-.262.298l-.149.16-.116.12a9.562 9.562 0 01-.204.198l-.03.03-.072.069a9.05 9.05 0 01-.263.235l-.025.022-.029.026-.042.035a11.7 11.7 0 01-.22.18l-.07.055-.018.013a8.904 8.904 0 01-.194.146c-.029.02-.057.042-.086.063a7.7 7.7 0 01-.22.152l-.057.04a8.865 8.865 0 01-.293.185l-.062.037a10.424 10.424 0 01-.307.173l-.037.02-.196.103-.108.052-.012.006a6.196 6.196 0 01-.315.143c-.065.028-.13.054-.196.08l-.035.014-.086.034c-.07.026-.143.05-.215.075l-.039.014-.064.023a8.056 8.056 0 01-.323.097l-.63.173a7.285 7.285 0 01-.33.08l-.07.015c-.053.012-.104.023-.157.032l-.065.011-.085.015a2.332 2.332 0 01-.194.027l-.085.01a4.715 4.715 0 01-.16.018l-.034.003a4.861 4.861 0 01-.246.016h-.033a2.714 2.714 0 01-.155.005h-.106a3.384 3.384 0 01-.225-.007H4.86l-.15-.012-.066-.006a5.586 5.586 0 01-.187-.02l-.04-.005a5.14 5.14 0 01-.219-.035l-.054-.01a6.943 6.943 0 01-.347-.082l-.03-.008-.038-.01a5.034 5.034 0 01-.269-.086l-.063-.023a4.216 4.216 0 01-.188-.073l-.071-.031-.016-.007a4.959 4.959 0 01-.16-.074l-.026-.013a.164.164 0 00-.014-.007l-.671-.351.486.486h.016l8.995 4.742.093.048.03.014.02.01c.056.026.111.052.169.076l.016.008.073.032.195.076.022.008a.718.718 0 01.03.012l.014.004a4.693 4.693 0 00.323.1l.027.007c.073.02.147.038.22.055l.018.004.027.006.066.013.088.016c.075.014.15.026.226.038l.042.004c.064.009.128.016.193.022l.126.012.06.003.05.002.098.005c.046.002.094.002.14.003h.12c.05 0 .1-.002.161-.005h.033l.07-.004a6.17 6.17 0 00.184-.014l.033-.003a.753.753 0 00.058-.005l.108-.012.081-.01.08-.01.129-.021.082-.014.071-.012c.054-.01.107-.021.16-.033l.066-.013.059-.013c.096-.022.192-.046.287-.073l.63-.172a7.354 7.354 0 00.397-.122l.04-.015c.075-.025.149-.051.222-.078.032-.011.062-.024.093-.037l.03-.012c.067-.027.135-.054.2-.082l.128-.056.195-.09.021-.01.102-.05c.068-.034.135-.069.202-.105l.037-.02.073-.038c.08-.044.16-.092.24-.139l.026-.015a8.086 8.086 0 00.322-.2l.065-.045 1.98.902a1.748 1.748 0 002.472-1.59v-7.33l.004.004z" opacity=".5"></path><path d="M11.617.576a3.904 3.904 0 00-.093-.047c-.016-.009-.033-.016-.05-.024a5.854 5.854 0 00-.166-.077l-.09-.04a4.094 4.094 0 00-.194-.074c-.017-.006-.035-.015-.053-.02l-.013-.005a5.18 5.18 0 00-.277-.088l-.07-.019a4.034 4.034 0 00-.219-.053c-.015-.003-.03-.008-.044-.012L10.253.1l-.057-.011a5.177 5.177 0 00-.225-.036L9.928.047a5.972 5.972 0 00-.191-.022L9.669.02a1.33 1.33 0 00-.058-.005L9.515.009a4.058 4.058 0 00-.111-.005C9.354 0 9.304 0 9.254 0h-.109c-.052 0-.106.004-.16.004L8.884.01A5.32 5.32 0 008.7.022l-.083.006h-.008c-.05.005-.1.013-.15.019l-.12.014c-.056.008-.112.018-.169.028-.037.006-.074.011-.11.018a7.054 7.054 0 00-.572.133l-.63.172c-.111.031-.22.064-.33.1-.037.011-.072.025-.108.037a12.91 12.91 0 00-.345.126c-.067.027-.133.054-.2.083l-.128.055a11.916 11.916 0 00-.318.15 7.376 7.376 0 00-.311.163c-.082.045-.16.092-.24.14a9.424 9.424 0 00-.35.218l-.016.01-.06.04a9.242 9.242 0 00-.51.37 12.54 12.54 0 00-.315.254l-.043.034-.01.007-.045.041c-.09.078-.18.158-.268.24l-.106.101c-.07.067-.139.135-.207.204l-.056.054-.063.067-.153.164-.12.133-.148.17c-.024.03-.049.057-.073.086l-.043.053a5.96 5.96 0 00-.123.155l-.118.151c-.04.053-.08.106-.118.16l-.075.101-.038.056-.107.155-.11.164a9.91 9.91 0 00-.168.265c-.012.02-.023.043-.037.063a12.43 12.43 0 00-.192.335l-.09.168c-.019.034-.04.07-.057.105-.011.022-.02.043-.032.065l-.092.188-.08.167a19.15 19.15 0 00-.083.192c-.017.038-.035.076-.05.115-.008.016-.014.034-.021.051-.035.083-.067.167-.1.253l-.051.134c-.04.11-.077.22-.113.33l-.02.057c0 .002 0 .005-.002.007l-.008.026c-.032.1-.06.2-.09.301l-.023.089c-.027.1-.052.2-.075.301l-.007.03a7.63 7.63 0 00-.057.267l-.008.048c-.015.074-.026.148-.038.223L.082 8.4c-.011.078-.02.156-.029.234-.006.051-.013.103-.017.154a6.57 6.57 0 00-.02.26c-.003.044-.007.086-.009.13-.004.128-.007.257-.007.386v4.056c0 1.478.42 2.741 1.138 3.692A4.75 4.75 0 002.73 18.67l9.015 4.753c-1.656-.874-2.728-2.685-2.73-5.051v-4.056c0-.13.004-.26.01-.39.002-.043.006-.085.01-.128.005-.088.01-.174.019-.261l.017-.155c.01-.077.018-.155.029-.234l.026-.164c.013-.074.025-.15.039-.223.02-.105.04-.21.064-.313l.008-.031c.023-.1.048-.201.075-.301l.023-.088c.028-.1.058-.202.09-.302l.008-.025.021-.063c.036-.11.073-.22.113-.33l.052-.134c.031-.085.065-.169.1-.253.022-.056.047-.111.07-.166a13.856 13.856 0 01.164-.358c.03-.063.06-.126.092-.188l.088-.172a9.22 9.22 0 01.187-.338l.096-.164c.034-.057.069-.112.104-.168l.1-.159a10.49 10.49 0 01.567-.786l.123-.155.116-.139c.05-.057.098-.115.148-.171a14.092 14.092 0 01.272-.297 9.706 9.706 0 01.432-.425c.088-.083.177-.163.268-.241l.054-.048a10.08 10.08 0 01.553-.435l.092-.068c.075-.053.15-.105.226-.156.019-.013.038-.028.06-.04a9.18 9.18 0 01.362-.227c.08-.047.16-.094.241-.139l.11-.058a7.643 7.643 0 01.521-.256l.126-.056a7.509 7.509 0 01.546-.208l.107-.037c.11-.036.22-.069.33-.1l.63-.172c.095-.026.191-.05.287-.072l.097-.02c.062-.014.125-.029.187-.04l.114-.018c.055-.01.11-.02.166-.028.04-.006.08-.01.12-.014.053-.007.105-.014.157-.019l.083-.006c.061-.005.123-.01.184-.013.034-.003.067-.003.101-.004l.16-.006h.11a3.187 3.187 0 01.261.008l.153.01.067.007c.064.006.128.013.192.022l.043.005a5.232 5.232 0 01.281.047l.141.03c.073.016.146.035.218.053l.07.019c.094.026.187.055.278.087l.067.025a4.326 4.326 0 01.449.19l.143.072L11.617.576z"></path></g>
  <text x="880" y="257" font-size="15" font-weight="700" fill="#1e293b">Qoder</text>
  <svg x="998" y="240" width="24" height="24" viewBox="10 10 108 108"><path fill-rule="evenodd" clip-rule="evenodd" d="M63.7271 20.0168C63.6085 19.9534 63.4897 19.8942 63.3711 19.8348C63.3079 19.8032 63.2406 19.7754 63.1772 19.7438C62.9636 19.6409 62.7501 19.5421 62.5365 19.4472C62.4217 19.3957 62.311 19.3482 62.1924 19.2968C61.9471 19.1939 61.6979 19.0991 61.4448 19.0081C61.3775 18.9843 61.3102 18.9527 61.239 18.9289C61.2231 18.9249 61.2074 18.9171 61.1915 18.9131C60.8395 18.7904 60.4835 18.6758 60.1235 18.5729C60.0325 18.5452 59.9415 18.5254 59.8505 18.5017C59.5736 18.4266 59.2928 18.3553 59.012 18.2961C58.9526 18.2842 58.8972 18.2644 58.8419 18.2526C58.7192 18.2248 58.5966 18.2051 58.474 18.1813C58.4027 18.1654 58.3276 18.1536 58.2564 18.1378C57.9716 18.0863 57.6829 18.0389 57.3901 17.9993C57.3348 17.9914 57.2794 17.9874 57.224 17.9796C56.9787 17.9479 56.7374 17.9202 56.4883 17.8964L56.2271 17.8728C56.152 17.8648 56.0768 17.8569 56.0016 17.8529C55.879 17.8451 55.7564 17.8411 55.6338 17.8332C55.4914 17.8253 55.349 17.8174 55.2065 17.8134C55.0166 17.8056 54.8229 17.8056 54.629 17.8016C54.583 17.8016 54.5366 17.8011 54.49 17.8007C54.3964 17.7998 54.3021 17.7989 54.2098 17.8016C54.008 17.8016 53.8023 17.8134 53.5966 17.8174C53.466 17.8213 53.3315 17.8253 53.201 17.8332C52.9676 17.8451 52.7303 17.8648 52.4969 17.8847L52.1765 17.9083H52.1449C51.955 17.9282 51.7611 17.9558 51.5672 17.9796C51.413 17.9993 51.2628 18.0152 51.1085 18.0349C50.8909 18.0666 50.6732 18.1062 50.4557 18.1417C50.3134 18.1654 50.1709 18.1853 50.0285 18.2129C49.7832 18.2604 49.5341 18.3118 49.2849 18.3672C49.1661 18.3909 49.0515 18.4147 48.9328 18.4424C48.5649 18.5254 48.197 18.6204 47.8291 18.7232L45.4043 19.3878C44.9771 19.5064 44.5539 19.6331 44.1306 19.7714C43.9921 19.8151 43.8576 19.8664 43.7191 19.9139C43.4344 20.0128 43.1496 20.1117 42.8688 20.2146C42.7105 20.2738 42.5523 20.3372 42.3901 20.4004C42.133 20.5033 41.8759 20.6062 41.6188 20.7169C41.4565 20.7881 41.2904 20.8593 41.1283 20.9306C40.875 21.0452 40.6259 21.1599 40.3766 21.2786C40.2184 21.3538 40.0601 21.4289 39.9019 21.5081C39.6409 21.6386 39.3838 21.7731 39.1266 21.9116C38.9843 21.9867 38.8418 22.0618 38.7034 22.1371C38.3909 22.3071 38.0862 22.4891 37.7777 22.6711C37.6946 22.7184 37.6116 22.7659 37.5285 22.8174C37.1606 23.0389 36.7968 23.2723 36.4328 23.5097C36.413 23.5216 36.3933 23.5373 36.3735 23.5492C36.2944 23.6006 36.2191 23.6559 36.144 23.7074C35.8513 23.9052 35.5625 24.1029 35.2777 24.3087C35.159 24.3957 35.0404 24.4827 34.9217 24.5658C34.6725 24.7517 34.4233 24.9377 34.178 25.1276C34.0633 25.2146 33.9486 25.3056 33.8379 25.3926C33.5451 25.6259 33.2524 25.8633 32.9636 26.1046C32.9083 26.1521 32.8529 26.1956 32.7975 26.2391C32.7856 26.2469 32.7738 26.2588 32.7619 26.2668C32.7025 26.3182 32.6471 26.3736 32.5879 26.4249C32.2398 26.7256 31.8916 27.0342 31.5554 27.3506C31.417 27.4772 31.2864 27.6077 31.148 27.7383C30.879 27.9954 30.6139 28.2564 30.3489 28.5216C30.2778 28.5927 30.2065 28.6599 30.1353 28.7312C30.0523 28.8142 29.9771 28.9052 29.894 28.9883C29.6962 29.1979 29.4984 29.4076 29.3046 29.6212L28.8417 30.1314C28.648 30.3491 28.462 30.5706 28.2721 30.7882C28.1773 30.8989 28.0822 31.0057 27.9912 31.1164C27.9359 31.1837 27.8805 31.2549 27.8251 31.3222C27.663 31.5199 27.5048 31.7177 27.3505 31.9194C27.2001 32.1133 27.0459 32.3071 26.8956 32.5009C26.7412 32.7027 26.591 32.9084 26.4406 33.1141C26.3457 33.2446 26.2469 33.3712 26.1519 33.5057C26.1005 33.5769 26.057 33.6481 26.0055 33.7193C25.8671 33.9171 25.7326 34.1188 25.5941 34.3166C25.4518 34.5263 25.3094 34.7359 25.1709 34.9496C25.0404 35.1513 24.9098 35.3569 24.7833 35.5627C24.6963 35.6972 24.6091 35.8317 24.5261 35.9701C24.4786 36.0492 24.4351 36.1323 24.3838 36.2114C24.2571 36.4211 24.1345 36.6307 24.0159 36.8443C23.8892 37.0619 23.7666 37.2794 23.644 37.5009C23.5254 37.7146 23.4106 37.9322 23.2959 38.1457C23.2246 38.2802 23.1456 38.4147 23.0784 38.5532C23.0347 38.6362 22.9992 38.7193 22.9557 38.8024C22.8331 39.0437 22.7184 39.2849 22.5996 39.5263C22.4969 39.7399 22.394 39.9534 22.2951 40.1711C22.1844 40.4163 22.0775 40.6616 21.9708 40.9068C21.9074 41.0532 21.8362 41.1996 21.7769 41.3498C21.7492 41.4132 21.7255 41.4804 21.6978 41.5477C21.5633 41.8681 21.4406 42.1924 21.3141 42.5207C21.2469 42.6948 21.1796 42.8649 21.1162 43.0389C20.962 43.4583 20.8196 43.8816 20.6811 44.3087C20.6574 44.3799 20.6298 44.4512 20.606 44.5263C20.606 44.5342 20.602 44.5461 20.5981 44.5539C20.5863 44.5857 20.5784 44.6212 20.5665 44.6529C20.4439 45.0406 20.333 45.4282 20.2222 45.8158C20.1906 45.9306 20.159 46.0413 20.1314 46.1561C20.0285 46.5397 19.9296 46.9274 19.8425 47.3151C19.8346 47.3546 19.8227 47.3942 19.8149 47.4337C19.7357 47.7739 19.6645 48.1141 19.5972 48.4583C19.5854 48.5216 19.5775 48.5809 19.5656 48.6442C19.5102 48.9289 19.4668 49.2138 19.4193 49.5026C19.3838 49.7122 19.3481 49.9258 19.3165 50.1354C19.2729 50.4361 19.2413 50.7367 19.2056 51.0374C19.182 51.2352 19.1543 51.4329 19.1385 51.6307C19.1068 51.9631 19.083 52.2992 19.0632 52.6354C19.0514 52.8016 19.0356 52.9638 19.0276 53.1299C19.0119 53.6164 19 54.1189 19 54.6173V70.2344C19 75.9267 20.6139 80.7882 23.3829 84.4512C23.6599 84.8191 23.9486 85.1712 24.2453 85.5153C24.6963 86.0296 25.167 86.516 25.6654 86.9709C26.8195 88.0307 28.1031 88.9373 29.4929 89.6714L29.5417 89.7204H29.5858L64.2216 107.98C64.0544 107.892 63.8887 107.801 63.7246 107.708L64.2334 107.976C64.352 108.039 64.4706 108.099 64.5932 108.162C64.6329 108.182 64.6724 108.197 64.712 108.217L64.7871 108.253C65.0007 108.356 65.2144 108.455 65.4359 108.55L65.4991 108.577C65.5941 108.617 65.6851 108.66 65.78 108.7C66.0292 108.803 66.2784 108.898 66.5316 108.993L66.6146 109.024C66.6581 109.04 66.6978 109.056 66.7334 109.072L66.7848 109.088C67.1329 109.21 67.4967 109.325 67.8607 109.428C67.9161 109.444 67.9715 109.459 68.0269 109.471L68.1336 109.499C68.4105 109.574 68.6954 109.645 68.9801 109.709L69.0474 109.724C69.083 109.732 69.1146 109.74 69.1503 109.748C69.2334 109.768 69.3204 109.784 69.4074 109.8L69.7436 109.863C70.0324 109.914 70.3211 109.962 70.6139 110.005L70.776 110.025C71.0213 110.057 71.2705 110.084 71.5198 110.108L72.0062 110.152C72.0815 110.156 72.1566 110.16 72.2357 110.163L72.4256 110.171C72.5521 110.179 72.6747 110.187 72.8054 110.191C72.9834 110.199 73.1652 110.199 73.3432 110.203H73.8061C74 110.203 74.1937 110.195 74.4271 110.183H74.5537C74.6407 110.175 74.7317 110.175 74.8227 110.167C75.0561 110.156 75.2935 110.136 75.5309 110.116L75.6574 110.104C75.7207 110.1 75.784 110.096 75.8829 110.084C76.0214 110.069 76.1597 110.053 76.2982 110.037L76.6107 109.997C76.7136 109.985 76.8164 109.974 76.9193 109.958C77.0854 109.934 77.2476 109.906 77.4137 109.879L77.7302 109.827C77.8211 109.811 77.9121 109.8 78.0031 109.78C78.2089 109.74 78.4145 109.697 78.6202 109.653L78.8734 109.602C78.9485 109.586 79.0238 109.57 79.0989 109.554C79.4668 109.471 79.8346 109.376 80.2065 109.273L82.6312 108.609C83.0309 108.498 83.4501 108.376 83.905 108.225C83.9921 108.197 84.0751 108.17 84.1582 108.138L84.3165 108.083C84.6012 107.984 84.8861 107.885 85.1669 107.782C85.2895 107.739 85.4083 107.687 85.5269 107.64L85.6416 107.592C85.8987 107.489 86.1598 107.387 86.413 107.276C86.5751 107.205 86.7374 107.133 86.9035 107.062C87.1566 106.947 87.4059 106.833 87.655 106.714L87.7381 106.675L88.1298 106.485C88.3908 106.354 88.6479 106.22 88.905 106.081L89.0475 106.006C89.1424 105.955 89.2374 105.907 89.3284 105.856C89.6409 105.686 89.9454 105.504 90.254 105.322L90.3568 105.262C90.4043 105.235 90.4518 105.207 90.5031 105.179C90.871 104.958 91.235 104.728 91.5949 104.491L91.8441 104.321L99.4668 107.794C103.921 109.823 108.984 106.568 108.984 101.671V73.4506L109 73.4664V57.8493C109 48.9767 105.139 41.8564 98.4185 38.3121L98.1504 38.1707C98.2468 38.2181 98.3426 38.2658 98.4384 38.3158L63.7271 20.0168Z" fill="#2ADB5C"/><path d="M49.6479 83.1418C55.9571 84.2543 62.3933 77.6606 64.0237 68.4144C65.654 59.1682 61.8611 50.7708 55.5519 49.6584C49.2428 48.5459 42.8065 55.1396 41.1762 64.3858C39.5458 73.632 43.3387 82.0293 49.6479 83.1418Z" fill="white"/><path d="M57.201 77.1624C60.0293 77.6611 63.0684 73.8326 63.989 68.6112C64.9097 63.3898 63.3633 58.7527 60.5351 58.254C57.7068 57.7553 54.6677 61.5838 53.747 66.8052C52.8264 72.0266 54.3728 76.6637 57.201 77.1624Z" fill="black"/><path d="M72.8239 84.4978C79.1331 85.6103 85.5694 79.0166 87.1997 69.7704C88.8301 60.5242 85.0371 52.1268 78.728 51.0143C72.4188 49.9018 65.9825 56.4955 64.3522 65.7417C62.7218 74.9879 66.5148 83.3853 72.8239 84.4978Z" fill="white"/><path d="M80.3768 78.5183C83.2051 79.017 86.2442 75.1885 87.1648 69.9671C88.0855 64.7457 86.5391 60.1087 83.7108 59.61C80.8826 59.1113 77.8435 62.9398 76.9228 68.1612C76.0021 73.3826 77.5486 78.0196 80.3768 78.5183Z" fill="black"/><path d="M44.8 38.5198C53.4 50.1198 67.3001 49.9519 74.3001 41.0519C77.7999 36.6022 73.8 29.2519 69.7 33.4519C64.387 38.8946 72 49.9198 83.1 51.3198" stroke="black" stroke-width="4.375" fill="none"/></svg>
  <text x="1036" y="257" font-size="15" font-weight="700" fill="#1e293b">QoderWork</text>
  <g transform="translate(844,291) scale(0.112)"><defs><clipPath id="master_svg0_145_28391"><rect x="0" y="0" width="175.35000610351562" height="235.4199981689453" rx="0"/></clipPath></defs><g clip-path="url(#master_svg0_145_28391)"><path d="M83.10836,229.9998485546875C129.00784,229.9998485546875,166.21672,193.9784385546875,166.21672,149.5438075546875C166.21672,105.1091615546875,129.00784,69.0877685546875,83.10836,69.0877685546875C37.208885,69.0877685546875,0,105.1091615546875,0,149.5438075546875C0,193.9784385546875,37.208885,229.9998485546875,83.10836,229.9998485546875ZM83.108734,195.39502855468749C109.26651,195.39502855468749,130.47157,174.8667085546875,130.47157,149.5437395546875C130.47157,124.2207715546875,109.26651,103.6924515546875,83.108734,103.6924515546875C56.950966,103.6924515546875,35.745914,124.2207715546875,35.745914,149.5437395546875C35.745914,174.8667085546875,56.950966,195.39502855468749,83.108734,195.39502855468749Z" fill-rule="evenodd" fill="#000000" fill-opacity="1"/><path d="M80.31835555625,46.48915884375C82.31537815625,48.43563484375,84.69048165625,49.96570184375,87.44365765625,51.07936084375C90.19683265625,52.19301584375,93.18267265624999,52.75468784375,96.40117865625,52.75468784375C99.61968465625,52.75468784375,102.68308465625,52.18332684375,105.42656165625,51.05030784375C108.17973665625,49.90760084375,110.56454065625,48.35816584375,112.59064065625,46.38263684375C114.61674165625,44.40710784375,116.19691465625,42.11201084375,117.34083965625,39.49733884375C118.48477165624999,36.882665843750004,119.04704265625,34.064632843750005,119.04704265625,31.06260484375L119.04704265625,30.90766184375C119.04704265625,27.90563184375,118.47508265625001,25.08759984375,117.34083965625,22.47292784375C116.19691465625,19.84857384375,114.62644165625,17.57284164375,112.62942165625,15.626364743749999C110.63239665625,13.679887743750001,108.25728965625001,12.14982174375,105.50411765625,11.03616584375C102.75094265625,9.92250990375,99.76509865625,9.36083984375,96.54659465625,9.36083984375C93.32809265624999,9.36083984375,90.26469065625,9.93219375375,87.51151765624999,11.06521774375C84.75834165625,12.207925543750001,82.37353995625,13.757359543749999,80.34743685625,15.73288914375C78.32133435625,17.70841784375,76.74116035625,19.99383284375,75.59723355625,22.618188843749998C74.45330721625,25.23285984375,73.88134765625,28.05089384375,73.88134765625,31.05292284375L73.88134765625,31.20786484375C73.88134765625,34.21957984375,74.45330721625,37.02792784375,75.59723355625,39.65228284375C76.74116035625,42.26695984375,78.31163835625,44.55237584375,80.30865955625,46.48916284375L80.31835555625,46.48915884375Z" fill="#FF9D4D" fill-opacity="1" style="mix-blend-mode:passthrough" transform="matrix(0.9901291728019714,-0.14083673059940338,0.14062289893627167,0.9899662137031555,-0.5870784194339649,10.499132122735318)"/><path d="M21.69596002224121,58.3371813046875C23.692555422241213,60.2836573046875,26.06714692224121,61.8137283046875,28.81973592224121,62.9273833046875C31.57232092224121,64.0410383046875,34.55752192224121,64.60271030468749,37.77533692224121,64.60271030468749C40.99315292224121,64.60271030468749,44.05588892224121,64.0313493046875,46.79878192224121,62.8886373046875C49.55137092224121,61.7459373046875,51.93565192224121,60.1965023046875,53.96132492224121,58.2209703046875C55.98699792224121,56.2454453046875,57.566831922241214,53.9600293046875,58.71051192224121,51.3356743046875C59.854188922241214,48.7210023046875,60.42603492224121,45.9029693046875,60.42603492224121,42.900940304687495L60.42603492224121,42.745998304687504C60.42603492224121,39.7439723046875,59.854188922241214,36.935620304687504,58.71051192224121,34.3112663046875C57.566831922241214,31.6869113046875,55.996690922241214,29.4111795046875,54.00008992224121,27.4743867046875C52.00349992224121,25.5279102046875,49.628903922241214,23.9978435046875,46.87632192224121,22.8841878046875C44.12373592224121,21.7705321946875,41.138536922241215,21.2088623046875,37.920720922241216,21.2088623046875C34.702905922241214,21.2088623046875,31.640168922241212,21.7802163346875,28.88758192224121,22.9229246046875C26.134994922241212,24.0656326046875,23.75070952224121,25.6150675046875,21.725039022241212,27.5905948046875C19.69936752224121,29.5661259046875,18.11953732224121,31.8612243046875,16.97585702224121,34.4758963046875C15.832175972241211,37.0905673046875,15.260335922241211,39.9085983046875,15.260335922241211,42.9106273046875L15.260335922241211,43.065571304687495C15.260335922241211,46.0772853046875,15.832175972241211,48.8856313046875,16.97585702224121,51.5099883046875C18.11953782224121,54.1246603046875,19.689675822241213,56.4100763046875,21.68627162224121,58.3565523046875L21.69596002224121,58.3371813046875Z" fill="#FF9D4D" fill-opacity="1" style="mix-blend-mode:passthrough" transform="matrix(0.9901291728019714,-0.14083673059940338,0.14062289893627167,0.9899662137031555,-2.8318195615530612,2.3620210111015183)"/><path d="M128.877099025,80.714233296875C130.874905625,82.660366296875,133.250938625,84.190162296875,136.005211625,85.303615296875C138.759467625,86.417068296875,141.746486625,86.97863729687501,144.966264625,86.97863729687501C148.186042625,86.97863729687501,151.250633625,86.407386296875,153.995200625,85.26488529687501C156.749454625,84.12237929687501,159.135200625,82.573223296875,161.162097625,80.59804129687501C163.188995625,78.62287129687499,164.769794625,76.337856296875,165.914161625,73.713974296875C167.058528625,71.099767296875,167.621028625,68.282234296875,167.621028625,65.280740296875L167.621028625,65.125827296875C167.621028625,62.124336296875,167.048839625,59.316484296875004,165.914161625,56.692597296875C164.769794625,54.068712296875,163.198684625,51.793384596875,161.200881625,49.856937396875C159.203075625,47.910807096875,156.827041625,46.381013396875,154.072772625,45.267556196875C151.318509625,44.154099106875,148.331493625,43.592529296875,145.121423625,43.592529296875C141.911352625,43.592529296875,138.837056625,44.163781586875,136.082798625,45.306286096875C133.328540625,46.448790596875,130.942799525,47.997950096875,128.915899725,49.973125496875C126.888999425,51.948304196875,125.308203425,54.242992296875,124.163826825,56.857199296875C123.019450185,59.471404296875,122.447265625,62.288936296875,122.447265625,65.290430296875L122.447265625,65.445343296875C122.447265625,68.456518296875,123.019450185,71.264366296875,124.163826825,73.888256296875C125.308203425,76.502460296875,126.879299125,78.787471296875,128.877106225,80.733600296875L128.877099025,80.714233296875Z" fill="#FF9D4D" fill-opacity="1" style="mix-blend-mode:passthrough" transform="matrix(0.8998494148254395,-0.43620070815086365,0.43569377064704895,0.9000949859619141,-6.729828156028816,57.76669622812187)"/><rect x="131.88916015625" y="152.255859375" width="34.327369689941406" height="77.7440414428711" rx="0" fill="#000000" fill-opacity="1"/></g></g>
  <text x="880" y="309" font-size="15" font-weight="700" fill="#1e293b">QwenPaw</text>
  <svg x="998" y="292" width="24" height="24" viewBox="-4.14 -1.64 44.28 44.28"><path fill-rule="evenodd" d="M36.00,24.50 L30.50,22.17 L24.50,26.00 L21.67,26.00 L18.67,24.00 L15.50,25.17 L13.17,27.50 L13.17,37.67 L15.50,40.00 L19.67,41.00 L33.67,33.00 L36.00,30.67Z M4.50,7.17 L0.17,10.50 L0.00,29.67 L1.50,32.00 L6.67,33.17 L10.00,30.67 L10.17,22.67 L15.00,18.67 L15.17,13.50 L11.67,10.17Z M13.17,2.50 L13.17,7.67 L20.83,13.33 L21.17,17.67 L23.50,20.00 L27.67,21.00 L36.00,15.67 L36.00,9.50 L25.67,3.17 L18.67,0.00 L16.50,0.17Z" fill="#3CD377"/></svg>
  <text x="1036" y="309" font-size="15" font-weight="700" fill="#1e293b">QwenWork</text>
  <g transform="translate(842,344) scale(1.0)"><g clip-path="url(#a)"><path d="M9.046 7.104a.527.527 0 110 1.055.527.527 0 010-1.055z"></path><path d="M15.376 7.104a.528.528 0 110 1.056.528.528 0 010-1.056z"></path><path clip-rule="evenodd" d="M16.877 1.912c.58-.27 1.14-.323 1.616-.037a.317.317 0 01-.326.542c-.227-.136-.547-.153-1.022.068-.352.165-.765.45-1.234.866 2.683 1.17 4.4 3.5 5.148 5.921a6.421 6.421 0 00-.704.184c-.578.016-1.174.204-1.502.735-.338.55-.268 1.276.072 2.069l.005.012.007.014c.523 1.045 1.318 1.91 2.2 2.284-.912 3.274-3.44 6.144-5.972 6.988v2.109h-2.11v-2.11c-1.043.417-2.086.01-2.11 0v2.11h-2.11v-2.11c-2.531-.843-5.061-3.713-5.973-6.987.882-.373 1.678-1.238 2.2-2.284l.007-.014.006-.012c.34-.793.41-1.518.071-2.069-.327-.531-.923-.719-1.503-.735a6.409 6.409 0 00-.704-.183c.749-2.421 2.466-4.751 5.149-5.922-.47-.416-.88-.701-1.234-.866-.474-.221-.794-.204-1.021-.068a.318.318 0 01-.435-.109.317.317 0 01.109-.433c.476-.286 1.036-.233 1.615.037.49.229 1.031.628 1.621 1.182A9.924 9.924 0 0112 2.568c1.199 0 2.284.19 3.256.526.59-.554 1.13-.953 1.62-1.182zM8.835 6.577a1.266 1.266 0 100 2.532 1.266 1.266 0 000-2.532zm6.33 0a1.267 1.267 0 100 2.533 1.267 1.267 0 000-2.533z"></path><path d="M.395 13.118c-.966-1.932-.163-3.863 2.41-3.365v-.001l.05.01c.084.018.17.038.26.06.033.009.067.017.1.027.084.022.168.048.255.076l.09.027c.528 0 .95.158 1.16.501.212.343.212.87-.105 1.61-.085.17-.178.333-.276.489l-.01.017a4.967 4.967 0 01-.62.791l-.019.02c-1.092 1.117-2.496 1.336-3.295-.262z"></path><path d="M21.193 9.753c2.574-.5 3.378 1.433 2.411 3.365-.58 1.159-1.476 1.361-2.342.96l-.011-.005a2.419 2.419 0 01-.114-.056l-.019-.01a2.751 2.751 0 01-.115-.067l-.023-.014c-.035-.022-.071-.044-.106-.068l-.05-.035c-.55-.388-1.062-1.007-1.44-1.76-.276-.647-.311-1.132-.174-1.472.176-.439.636-.639 1.23-.639.032-.011.066-.02.099-.03.08-.026.16-.05.238-.072l.117-.03a5.502 5.502 0 01.3-.067z"></path></g><defs><linearGradient gradientUnits="userSpaceOnUse" id="b" x1="-.659" x2="27.023" y1=".458" y2="22.855"><stop stop-color="#FF4D4D"></stop><stop offset="1" stop-color="#991B1B"></stop></linearGradient><linearGradient gradientUnits="userSpaceOnUse" id="c" x1="-.659" x2="27.023" y1=".458" y2="22.855"><stop stop-color="#FF4D4D"></stop><stop offset="1" stop-color="#991B1B"></stop></linearGradient><linearGradient gradientUnits="userSpaceOnUse" id="d" x1="-.659" x2="27.023" y1=".458" y2="22.855"><stop stop-color="#FF4D4D"></stop><stop offset="1" stop-color="#991B1B"></stop></linearGradient><linearGradient gradientUnits="userSpaceOnUse" id="e" x1="-.659" x2="27.023" y1=".458" y2="22.855"><stop stop-color="#FF4D4D"></stop><stop offset="1" stop-color="#991B1B"></stop></linearGradient><linearGradient gradientUnits="userSpaceOnUse" id="f" x1="-.659" x2="27.023" y1=".458" y2="22.855"><stop stop-color="#FF4D4D"></stop><stop offset="1" stop-color="#991B1B"></stop></linearGradient><clipPath id="a"><path d="M0 0h24v24H0z"></path></clipPath></defs></g>
  <text x="880" y="361" font-size="15" font-weight="700" fill="#1e293b">OpenClaw</text>
  <text x="1036" y="361" font-size="13" fill="#94a3b8">… and more</text>
  <!-- Footer -->
  <text x="600" y="434" text-anchor="middle" font-size="12" fill="#94a3b8"><tspan font-family="ui-monospace,'SFMono-Regular','Menlo','Consolas','Liberation Mono',monospace">github.com/yenns7/freeglm</tspan><tspan>&#160;&#160;·&#160;&#160;Apache-2.0</tspan></text>
</svg>
